<svg width="44" height="44" viewBox="0 0 44 44" fill="none" xmlns="http://www.w3.org/2000/svg">
<rect width="44" height="44" rx="6" fill="#E4F3E5"/>
<path d="M10.2797 26.11C9.70766 26.11 9.23832 26.0257 8.87166 25.857C8.51232 25.6883 8.22999 25.439 8.02466 25.109C7.81932 24.779 7.67632 24.372 7.59566 23.888C7.52232 23.404 7.48566 22.8467 7.48566 22.216C7.48566 21.5707 7.52232 21.0023 7.59566 20.511C7.67632 20.0197 7.81932 19.609 8.02466 19.279C8.22999 18.949 8.51232 18.6997 8.87166 18.531C9.23832 18.3623 9.70766 18.278 10.2797 18.278C10.5437 18.278 10.804 18.2927 11.0607 18.322C11.3247 18.344 11.5703 18.377 11.7977 18.421C12.025 18.4577 12.2193 18.4943 12.3807 18.531L12.3477 19.268C12.1863 19.2387 11.9883 19.2093 11.7537 19.18C11.519 19.1507 11.2807 19.125 11.0387 19.103C10.7967 19.081 10.5767 19.07 10.3787 19.07C9.96066 19.07 9.61966 19.1323 9.35566 19.257C9.09899 19.3817 8.90099 19.576 8.76166 19.84C8.62232 20.0967 8.52699 20.423 8.47566 20.819C8.42432 21.2077 8.39866 21.6733 8.39866 22.216C8.39866 22.744 8.42432 23.206 8.47566 23.602C8.52699 23.9907 8.61866 24.3133 8.75066 24.57C8.88999 24.8193 9.09166 25.0063 9.35566 25.131C9.61966 25.2557 9.96432 25.318 10.3897 25.318C10.6977 25.318 11.035 25.2997 11.4017 25.263C11.7757 25.219 12.091 25.175 12.3477 25.131L12.3807 25.879C12.2047 25.9157 11.9993 25.9523 11.7647 25.989C11.53 26.0257 11.2843 26.055 11.0277 26.077C10.771 26.099 10.5217 26.11 10.2797 26.11ZM13.5681 26V24.713H14.5031V26H13.5681ZM16.1506 26V18.399H18.9226C19.4212 18.399 19.8356 18.465 20.1656 18.597C20.5029 18.729 20.7559 18.938 20.9246 19.224C21.1006 19.51 21.1886 19.8803 21.1886 20.335C21.1886 20.6577 21.1482 20.9327 21.0676 21.16C20.9942 21.38 20.8879 21.5633 20.7486 21.71C20.6092 21.8567 20.4369 21.9813 20.2316 22.084C20.4516 22.1573 20.6496 22.2637 20.8256 22.403C21.0089 22.5423 21.1519 22.7293 21.2546 22.964C21.3646 23.1987 21.4196 23.4993 21.4196 23.866C21.4196 24.262 21.3646 24.5993 21.2546 24.878C21.1446 25.1493 20.9832 25.3693 20.7706 25.538C20.5652 25.6993 20.3159 25.8167 20.0226 25.89C19.7366 25.9633 19.4139 26 19.0546 26H16.1506ZM17.0306 25.23H19.0216C19.3296 25.23 19.5936 25.1897 19.8136 25.109C20.0409 25.0283 20.2169 24.889 20.3416 24.691C20.4662 24.4857 20.5286 24.1997 20.5286 23.833C20.5286 23.547 20.4736 23.316 20.3636 23.14C20.2609 22.964 20.1289 22.832 19.9676 22.744C19.8062 22.656 19.6376 22.5973 19.4616 22.568C19.2856 22.5387 19.1242 22.524 18.9776 22.524H17.0306V25.23ZM17.0306 21.754H18.9666C19.2819 21.754 19.5349 21.7063 19.7256 21.611C19.9236 21.5083 20.0666 21.358 20.1546 21.16C20.2499 20.962 20.2976 20.7127 20.2976 20.412C20.2976 19.9793 20.1802 19.664 19.9456 19.466C19.7182 19.268 19.3662 19.169 18.8896 19.169H17.0306V21.754ZM22.7311 26V24.713H23.6661V26H22.7311ZM27.7035 26.11C27.1315 26.11 26.6622 26.0257 26.2955 25.857C25.9362 25.6883 25.6538 25.439 25.4485 25.109C25.2432 24.779 25.1002 24.372 25.0195 23.888C24.9462 23.404 24.9095 22.8467 24.9095 22.216C24.9095 21.5707 24.9462 21.0023 25.0195 20.511C25.1002 20.0197 25.2432 19.609 25.4485 19.279C25.6538 18.949 25.9362 18.6997 26.2955 18.531C26.6622 18.3623 27.1315 18.278 27.7035 18.278C27.9675 18.278 28.2278 18.2927 28.4845 18.322C28.7485 18.344 28.9942 18.377 29.2215 18.421C29.4488 18.4577 29.6432 18.4943 29.8045 18.531L29.7715 19.268C29.6102 19.2387 29.4122 19.2093 29.1775 19.18C28.9428 19.1507 28.7045 19.125 28.4625 19.103C28.2205 19.081 28.0005 19.07 27.8025 19.07C27.3845 19.07 27.0435 19.1323 26.7795 19.257C26.5228 19.3817 26.3248 19.576 26.1855 19.84C26.0462 20.0967 25.9508 20.423 25.8995 20.819C25.8482 21.2077 25.8225 21.6733 25.8225 22.216C25.8225 22.744 25.8482 23.206 25.8995 23.602C25.9508 23.9907 26.0425 24.3133 26.1745 24.57C26.3138 24.8193 26.5155 25.0063 26.7795 25.131C27.0435 25.2557 27.3882 25.318 27.8135 25.318C28.1215 25.318 28.4588 25.2997 28.8255 25.263C29.1995 25.219 29.5148 25.175 29.7715 25.131L29.8045 25.879C29.6285 25.9157 29.4232 25.9523 29.1885 25.989C28.9538 26.0257 28.7082 26.055 28.4515 26.077C28.1948 26.099 27.9455 26.11 27.7035 26.11ZM30.9919 26V24.713H31.9269V26H30.9919ZM34.674 26V19.191H32.353V18.399H37.853V19.191H35.554V26H34.674Z" fill="#4CAF50"/>
</svg>
