<svg width="83" height="83" viewBox="0 0 83 83" fill="none" xmlns="http://www.w3.org/2000/svg">
<path d="M13.5003 21.4995L8.62832 24.7515C5.13232 27.0795 3.38432 28.2435 2.43632 30.0195C1.48832 31.7995 1.49632 33.8875 1.51232 38.0595C1.52832 43.0915 1.57632 48.2115 1.70432 53.3955C2.01232 65.6955 2.16432 71.8435 6.68832 76.3635C11.2083 80.8835 17.4403 81.0435 29.9043 81.3555C37.6351 81.5488 45.3695 81.5488 53.1003 81.3555C65.5643 81.0435 71.7963 80.8875 76.3163 76.3635C80.8363 71.8435 80.9923 65.6955 81.3003 53.3955C81.4283 48.2115 81.4763 43.0915 81.4923 38.0635C81.5043 33.8875 81.5123 31.7995 80.5643 30.0235C79.6203 28.2435 77.8723 27.0795 74.3763 24.7515L69.5003 21.4995" stroke="#898A8F" stroke-width="3" stroke-linecap="round" stroke-linejoin="round"/>
<path d="M1.5 33.4991L29.152 50.0911C35.168 53.6991 38.176 55.4991 41.5 55.4991C44.824 55.4991 47.832 53.6991 53.848 50.0871L81.5 33.4991" stroke="#898A8F" stroke-width="3" stroke-linecap="round" stroke-linejoin="round"/>
<path d="M13.5002 41.4995V17.4995C13.5002 9.95551 13.5002 6.18751 15.8442 3.84351C18.1882 1.49951 21.9562 1.49951 29.5002 1.49951H53.5002C61.0442 1.49951 64.8122 1.49951 67.1562 3.84351C69.5002 6.18751 69.5003 9.95551 69.5003 17.4995V41.4995M33.5002 33.4995H49.5002M33.5002 17.4995H49.5002" stroke="#898A8F" stroke-width="3" stroke-linecap="round" stroke-linejoin="round"/>
</svg>
