<svg width="20" height="20" viewBox="0 0 20 20" fill="none" xmlns="http://www.w3.org/2000/svg">
<path d="M19.8055 8.04144H19V7.99994H10V11.9999H15.6515C14.827 14.3284 12.6115 15.9999 10 15.9999C6.6865 15.9999 4 13.3134 4 9.99994C4 6.68644 6.6865 3.99994 10 3.99994C11.5295 3.99994 12.921 4.57694 13.9805 5.51944L16.809 2.69094C15.023 1.02644 12.634 -6.10352e-05 10 -6.10352e-05C4.4775 -6.10352e-05 0 4.47744 0 9.99994C0 15.5224 4.4775 19.9999 10 19.9999C15.5225 19.9999 20 15.5224 20 9.99994C20 9.32944 19.931 8.67494 19.8055 8.04144Z" fill="#FFC107"/>
<path d="M1.15332 5.34544L4.43882 7.75494C5.32782 5.55394 7.48082 3.99994 10.0003 3.99994C11.5298 3.99994 12.9213 4.57694 13.9808 5.51944L16.8093 2.69094C15.0233 1.02644 12.6343 -6.10352e-05 10.0003 -6.10352e-05C6.15932 -6.10352e-05 2.82832 2.16844 1.15332 5.34544Z" fill="#FF3D00"/>
<path d="M10.0002 20C12.5832 20 14.9302 19.0115 16.7047 17.404L13.6097 14.785C12.5719 15.5742 11.3039 16.0011 10.0002 16C7.39916 16 5.19066 14.3415 4.35866 12.027L1.09766 14.5395C2.75266 17.778 6.11366 20 10.0002 20Z" fill="#4CAF50"/>
<path d="M19.8055 8.04144H19V7.99994H10V11.9999H15.6515C15.2571 13.1081 14.5467 14.0765 13.608 14.7854L13.6095 14.7844L16.7045 17.4034C16.4855 17.6024 20 14.9999 20 9.99994C20 9.32944 19.931 8.67494 19.8055 8.04144Z" fill="#1976D2"/>
</svg>
