<svg width="44" height="44" viewBox="0 0 44 44" fill="none" xmlns="http://www.w3.org/2000/svg">
<path d="M31.3178 15.655C30.4749 14.0075 29.2092 12.6136 27.6503 11.6162C27.567 11.563 27.4741 11.5268 27.3767 11.5097C27.2794 11.4925 27.1796 11.4948 27.0832 11.5163C26.9867 11.5378 26.8955 11.5782 26.8147 11.6352C26.7339 11.6921 26.6651 11.7644 26.6124 11.848C26.5596 11.9315 26.5239 12.0247 26.5073 12.1222C26.4906 12.2196 26.4934 12.3193 26.5155 12.4157C26.5376 12.512 26.5784 12.603 26.6358 12.6835C26.6931 12.764 26.7658 12.8324 26.8497 12.8847C28.1871 13.7355 29.2707 14.9308 29.9866 16.345C30.0812 16.5159 30.2388 16.6432 30.4258 16.6997C30.6128 16.7563 30.8145 16.7376 30.9879 16.6477C31.1614 16.5578 31.2929 16.4038 31.3545 16.2184C31.4161 16.033 31.403 15.8308 31.3178 15.655Z" fill="#4CAF50"/>
<path fill-rule="evenodd" clip-rule="evenodd" d="M25.75 31C25.75 31.1989 25.671 31.3897 25.5303 31.5303C25.3897 31.671 25.1989 31.75 25 31.75H19C18.8011 31.75 18.6103 31.671 18.4697 31.5303C18.329 31.3897 18.25 31.1989 18.25 31C18.25 30.8011 18.329 30.6103 18.4697 30.4697C18.6103 30.329 18.8011 30.25 19 30.25H25C25.1989 30.25 25.3897 30.329 25.5303 30.4697C25.671 30.6103 25.75 30.8011 25.75 31ZM30.7947 26.4944C30.9276 26.7222 30.998 26.9811 30.9989 27.2448C30.9998 27.5086 30.9312 27.7679 30.7999 27.9967C30.6686 28.2255 30.4793 28.4156 30.251 28.5478C30.0228 28.6801 29.7638 28.7498 29.5 28.75H14.5C14.2364 28.7495 13.9776 28.6795 13.7496 28.5471C13.5217 28.4147 13.3327 28.2246 13.2016 27.9959C13.0705 27.7672 13.002 27.508 13.003 27.2444C13.004 26.9808 13.0744 26.7221 13.2072 26.4944C14.0519 25.0366 14.5 22.9637 14.5 20.5C14.5 18.5109 15.2902 16.6032 16.6967 15.1967C18.1032 13.7902 20.0109 13 22 13C23.9891 13 25.8968 13.7902 27.3033 15.1967C28.7098 16.6032 29.5 18.5109 29.5 20.5C29.5 22.9628 29.9481 25.0356 30.7947 26.4944ZM29.5 27.25C28.5025 25.5372 28 23.2666 28 20.5C28 18.9087 27.3679 17.3826 26.2427 16.2573C25.1174 15.1321 23.5913 14.5 22 14.5C20.4087 14.5 18.8826 15.1321 17.7574 16.2573C16.6322 17.3826 16 18.9087 16 20.5C16 23.2675 15.4956 25.5381 14.5 27.25H29.5Z" fill="#050505"/>
<path d="M13.3478 16.75C13.4852 16.7499 13.62 16.7121 13.7374 16.6407C13.8547 16.5693 13.9503 16.467 14.0135 16.345C14.7293 14.9308 15.8129 13.7355 17.1503 12.8847C17.2342 12.8324 17.3069 12.764 17.3642 12.6835C17.4216 12.603 17.4625 12.512 17.4845 12.4157C17.5066 12.3193 17.5094 12.2196 17.4928 12.1222C17.4761 12.0247 17.4404 11.9315 17.3877 11.848C17.3349 11.7644 17.2662 11.6921 17.1854 11.6352C17.1046 11.5782 17.0133 11.5378 16.9169 11.5163C16.8204 11.4948 16.7206 11.4925 16.6233 11.5097C16.526 11.5268 16.433 11.563 16.3497 11.6162C14.7909 12.6136 13.5251 14.0075 12.6822 15.655C12.623 15.7693 12.5942 15.8969 12.5986 16.0256C12.603 16.1542 12.6404 16.2796 12.7073 16.3896C12.7741 16.4996 12.8682 16.5905 12.9804 16.6536C13.0926 16.7167 13.2191 16.7499 13.3478 16.75Z" fill="#4CAF50"/>
</svg>
