<svg width="170" height="110" viewBox="0 0 170 110" fill="none" xmlns="http://www.w3.org/2000/svg">
<rect width="170" height="110" rx="26" fill="#C8E6C9"/>
<rect x="6.25" y="8.25" width="33.1836" height="33.1836" rx="16.5918" stroke="#898A8F" stroke-width="0.5"/>
<path d="M17.1546 28.3966C17.702 28.3288 18.0893 27.8319 18.0215 27.2845L17.3608 21.8373L29.3252 31.1637C29.759 31.5019 30.3905 31.4236 30.7287 30.9899C31.0668 30.5561 30.9886 29.9245 30.5548 29.5864L18.5904 20.2599L24.0359 19.5852C24.5833 19.5174 24.9706 19.0205 24.9028 18.4732C24.835 17.9258 24.3381 17.5385 23.7907 17.6063L15.9374 18.5722C15.39 18.64 15.0027 19.1369 15.0705 19.6842L16.0426 27.5297C16.1165 28.0692 16.6213 28.4627 17.1546 28.3966Z" fill="#323232"/>
<path d="M47.7119 101.312C47.6052 100.715 47.5092 100.144 47.4239 99.6C47.3492 99.056 47.3119 98.5867 47.3119 98.192C47.3119 97.4667 47.4399 96.8373 47.6959 96.304C47.9625 95.7813 48.3412 95.3813 48.8319 95.104C49.3225 94.816 49.9039 94.672 50.5759 94.672C50.7572 94.672 51.0079 94.672 51.3279 94.672C51.6479 94.672 52.0159 94.672 52.4319 94.672C52.8585 94.672 53.3012 94.672 53.7599 94.672C54.2292 94.672 54.6879 94.672 55.1359 94.672L54.1919 95.52V92.064C54.1919 91.3707 54.1119 90.8267 53.9519 90.432C53.8025 90.0373 53.5305 89.7547 53.1359 89.584C52.7519 89.4133 52.2239 89.328 51.5519 89.328C51.1145 89.328 50.6772 89.36 50.2399 89.424C49.8025 89.4773 49.4612 89.5573 49.2159 89.664L50.1279 88.768C50.0639 89.024 49.9999 89.3493 49.9359 89.744C49.8825 90.128 49.8345 90.5387 49.7919 90.976C49.7599 91.4133 49.7439 91.8453 49.7439 92.272C49.7439 92.7093 49.7599 93.1413 49.7919 93.568C49.8345 93.9947 49.8772 94.368 49.9199 94.688C49.9732 95.008 50.0159 95.2267 50.0479 95.344L48.6399 95.744C48.5972 95.6053 48.5439 95.3653 48.4799 95.024C48.4159 94.6827 48.3572 94.2773 48.3039 93.808C48.2612 93.328 48.2399 92.816 48.2399 92.272C48.2399 91.7493 48.2665 91.2427 48.3199 90.752C48.3732 90.2507 48.4319 89.7973 48.4959 89.392C48.5705 88.9867 48.6399 88.6613 48.7039 88.416C48.9492 88.32 49.3279 88.224 49.8399 88.128C50.3625 88.032 50.9385 87.984 51.5679 87.984C52.1439 87.984 52.6559 88.0373 53.1039 88.144C53.5519 88.2507 53.9359 88.4107 54.2559 88.624C54.5865 88.8373 54.8585 89.104 55.0719 89.424C55.2852 89.744 55.4399 90.128 55.5359 90.576C55.6319 91.0133 55.6799 91.5147 55.6799 92.08V96C55.2319 96 54.7465 96 54.2239 96C53.7119 96 53.2105 96 52.7199 96C52.2292 96 51.7919 96 51.4079 96C51.0345 96 50.7572 96 50.5759 96C50.4052 96 50.2185 96.0213 50.0159 96.064C49.8132 96.1173 49.6159 96.2133 49.4239 96.352C49.2425 96.5013 49.0932 96.72 48.9759 97.008C48.8585 97.3067 48.7999 97.7013 48.7999 98.192C48.7999 98.5973 48.8372 99.056 48.9119 99.568C48.9865 100.091 49.0719 100.672 49.1679 101.312H47.7119ZM64.5714 96V94.672H66.2834V96H64.5714ZM60.6354 99.664C60.2514 99.664 59.846 99.632 59.4194 99.568C59.0034 99.5147 58.5447 99.4347 58.0434 99.328L58.2674 98.128C58.8327 98.192 59.302 98.24 59.6754 98.272C60.0487 98.304 60.3687 98.32 60.6354 98.32C61.4887 98.32 62.1074 98.16 62.4914 97.84C62.886 97.52 63.0834 97.056 63.0834 96.448V88.928L63.6914 89.328H61.1794C60.614 89.328 60.1714 89.3973 59.8514 89.536C59.5314 89.664 59.3074 89.9253 59.1794 90.32C59.0514 90.704 58.9874 91.2693 58.9874 92.016C58.9874 92.752 59.0514 93.312 59.1794 93.696C59.3074 94.0693 59.526 94.3253 59.8354 94.464C60.1554 94.6027 60.6034 94.672 61.1794 94.672H63.0834V96H61.1794C60.2514 96 59.5207 95.8613 58.9874 95.584C58.454 95.296 58.07 94.8587 57.8354 94.272C57.6114 93.6747 57.4994 92.9227 57.4994 92.016C57.4994 91.0987 57.6114 90.3413 57.8354 89.744C58.07 89.1467 58.454 88.704 58.9874 88.416C59.5207 88.128 60.2514 87.984 61.1794 87.984H64.5714V96.432C64.5714 97.1147 64.4114 97.696 64.0914 98.176C63.7714 98.6667 63.318 99.0347 62.7314 99.28C62.1447 99.536 61.446 99.664 60.6354 99.664ZM66.2834 96V94.672C66.3474 94.672 66.4007 94.688 66.4434 94.72C66.486 94.752 66.518 94.7947 66.5394 94.848C66.5607 94.9013 66.5767 94.9707 66.5874 95.056C66.598 95.1307 66.6034 95.2213 66.6034 95.328C66.6034 95.424 66.598 95.5147 66.5874 95.6C66.5767 95.6853 66.5607 95.76 66.5394 95.824C66.518 95.8773 66.486 95.92 66.4434 95.952C66.4007 95.984 66.3474 96 66.2834 96ZM69.7213 96V94.672H71.5293V96H69.7213ZM71.5293 96V94.672C71.5933 94.672 71.6466 94.688 71.6893 94.72C71.7319 94.752 71.7639 94.7947 71.7853 94.848C71.8066 94.9013 71.8226 94.9707 71.8333 95.056C71.8439 95.1307 71.8493 95.2213 71.8493 95.328C71.8493 95.424 71.8439 95.5147 71.8333 95.6C71.8226 95.6853 71.8066 95.76 71.7853 95.824C71.7639 95.8773 71.7319 95.92 71.6893 95.952C71.6466 95.984 71.5933 96 71.5293 96ZM66.2812 96C66.2172 96 66.1639 95.984 66.1212 95.952C66.0786 95.92 66.0466 95.8773 66.0252 95.824C66.0039 95.76 65.9879 95.6853 65.9772 95.6C65.9666 95.5147 65.9612 95.424 65.9612 95.328C65.9612 95.1893 65.9719 95.072 65.9932 94.976C66.0039 94.88 66.0359 94.8053 66.0892 94.752C66.1319 94.6987 66.1959 94.672 66.2812 94.672V96ZM66.2812 96V94.672H69.0013L68.2333 95.28V87.984H69.7213V96H66.2812ZM66.9053 99.024V97.472H68.3773V99.024H66.9053ZM69.2893 99.024V97.472H70.7613V99.024H69.2893ZM73.4353 96V84.576H74.9233V96H73.4353ZM71.5312 96V94.672H73.4353V96H71.5312ZM71.5312 96C71.4672 96 71.4139 95.984 71.3712 95.952C71.3286 95.92 71.2966 95.8773 71.2752 95.824C71.2539 95.76 71.2379 95.6853 71.2272 95.6C71.2166 95.5147 71.2112 95.424 71.2112 95.328C71.2112 95.1893 71.2219 95.072 71.2432 94.976C71.2539 94.88 71.2859 94.8053 71.3392 94.752C71.3819 94.6987 71.4459 94.672 71.5312 94.672V96ZM77.629 96V84.576H79.117V96H77.629ZM89.661 96C88.5837 96 87.6823 95.872 86.957 95.616C86.2317 95.3493 85.6823 94.9547 85.309 94.432C84.9463 93.9093 84.765 93.2427 84.765 92.432C84.765 92.176 84.781 91.904 84.813 91.616C84.8557 91.3173 84.8983 91.0293 84.941 90.752C84.9943 90.4747 85.0423 90.2347 85.085 90.032C85.1277 89.8293 85.1597 89.6853 85.181 89.6L86.637 89.872C86.605 90.0427 86.557 90.272 86.493 90.56C86.4397 90.848 86.3863 91.1573 86.333 91.488C86.2797 91.8187 86.253 92.1333 86.253 92.432C86.253 92.8267 86.317 93.168 86.445 93.456C86.573 93.744 86.7703 93.9787 87.037 94.16C87.3143 94.3413 87.6663 94.4747 88.093 94.56C88.5303 94.6347 89.0637 94.672 89.693 94.672H94.269V87.984H95.773V96H89.661ZM88.349 87.984V86.432H89.821V87.984H88.349ZM90.733 87.984V86.432H92.205V87.984H90.733ZM99.9608 96V94.672H101.881V96H99.9608ZM98.4728 96V84.576H99.9608V96H98.4728ZM101.881 96V94.672C101.934 94.672 101.982 94.688 102.025 94.72C102.067 94.752 102.099 94.7947 102.121 94.848C102.142 94.9013 102.158 94.9707 102.169 95.056C102.19 95.1307 102.201 95.2213 102.201 95.328C102.201 95.424 102.19 95.5147 102.169 95.6C102.158 95.6853 102.142 95.76 102.121 95.824C102.099 95.8773 102.067 95.92 102.025 95.952C101.982 95.984 101.934 96 101.881 96ZM105.091 96V94.672H106.803V96H105.091ZM101.875 96C101.811 96 101.758 95.984 101.715 95.952C101.672 95.92 101.64 95.8773 101.619 95.824C101.598 95.76 101.582 95.6853 101.571 95.6C101.56 95.5147 101.555 95.424 101.555 95.328C101.555 95.1893 101.566 95.072 101.587 94.976C101.598 94.88 101.63 94.8053 101.683 94.752C101.726 94.6987 101.79 94.672 101.875 94.672V96ZM101.875 96V94.672H104.355L103.587 95.28V87.984H105.091V96H101.875ZM106.803 96V94.672C106.867 94.672 106.92 94.688 106.963 94.72C107.006 94.752 107.038 94.7947 107.059 94.848C107.08 94.9013 107.096 94.9707 107.107 95.056C107.118 95.1307 107.123 95.2213 107.123 95.328C107.123 95.424 107.118 95.5147 107.107 95.6C107.096 95.6853 107.08 95.76 107.059 95.824C107.038 95.8773 107.006 95.92 106.963 95.952C106.92 95.984 106.867 96 106.803 96ZM103.587 99.024V97.472H105.091V99.024H103.587ZM110.189 96V94.672H111.917V96H110.189ZM106.797 96C106.733 96 106.68 95.984 106.637 95.952C106.594 95.92 106.562 95.8773 106.541 95.824C106.52 95.76 106.504 95.6853 106.493 95.6C106.482 95.5147 106.477 95.424 106.477 95.328C106.477 95.1893 106.488 95.072 106.509 94.976C106.52 94.88 106.552 94.8053 106.605 94.752C106.648 94.6987 106.712 94.672 106.797 94.672V96ZM108.701 96V84.576H110.189V96H108.701ZM106.797 96V94.672H108.701V96H106.797ZM111.917 96V94.672C111.97 94.672 112.018 94.688 112.061 94.72C112.104 94.752 112.136 94.7947 112.157 94.848C112.178 94.9013 112.194 94.9707 112.205 95.056C112.226 95.1307 112.237 95.2213 112.237 95.328C112.237 95.424 112.226 95.5147 112.205 95.6C112.194 95.6853 112.178 95.76 112.157 95.824C112.136 95.8773 112.104 95.92 112.061 95.952C112.018 95.984 111.97 96 111.917 96ZM111.922 96V94.672H122.69L121.346 95.856V92.192C121.346 91.5413 121.255 91.008 121.074 90.592C120.903 90.1653 120.642 89.8507 120.29 89.648C119.938 89.4347 119.501 89.328 118.978 89.328C118.519 89.328 118.087 89.408 117.682 89.568C117.277 89.728 116.903 89.9413 116.562 90.208C116.221 90.464 115.901 90.7467 115.602 91.056C115.303 91.3653 115.031 91.6747 114.786 91.984C114.551 92.2933 114.338 92.5707 114.146 92.816L113.698 91.568C114.061 91.1093 114.418 90.672 114.77 90.256C115.122 89.8293 115.501 89.4453 115.906 89.104C116.322 88.7627 116.781 88.4907 117.282 88.288C117.794 88.0853 118.381 87.984 119.042 87.984C119.789 87.984 120.407 88.112 120.898 88.368C121.389 88.624 121.773 88.96 122.05 89.376C122.338 89.792 122.541 90.2507 122.658 90.752C122.775 91.2427 122.834 91.7227 122.834 92.192V96H111.922ZM112.994 94.672V84.576H114.482V94.672H112.994ZM111.922 96C111.858 96 111.805 95.984 111.762 95.952C111.719 95.92 111.687 95.8773 111.666 95.824C111.645 95.76 111.629 95.6853 111.618 95.6C111.607 95.5147 111.602 95.424 111.602 95.328C111.602 95.1893 111.613 95.072 111.634 94.976C111.645 94.88 111.677 94.8053 111.73 94.752C111.773 94.6987 111.837 94.672 111.922 94.672V96Z" fill="black"/>
</svg>
