<svg width="171" height="110" viewBox="0 0 171 110" fill="none" xmlns="http://www.w3.org/2000/svg">
<rect width="171" height="110" rx="26" fill="#EDF7EE"/>
<rect x="6.25" y="8.25" width="33.1836" height="33.1836" rx="16.5918" stroke="#898A8F" stroke-width="0.5"/>
<path d="M17.1546 28.3966C17.702 28.3288 18.0893 27.8319 18.0215 27.2845L17.3608 21.8373L29.3252 31.1637C29.759 31.5019 30.3905 31.4236 30.7287 30.9899C31.0668 30.5561 30.9886 29.9245 30.5548 29.5864L18.5904 20.2599L24.0359 19.5852C24.5833 19.5174 24.9706 19.0205 24.9028 18.4732C24.835 17.9258 24.3381 17.5385 23.7907 17.6063L15.9374 18.5722C15.39 18.64 15.0027 19.1369 15.0705 19.6842L16.0426 27.5297C16.1165 28.0692 16.6213 28.4627 17.1546 28.3966Z" fill="#323232"/>
<path d="M47.7391 96C46.6618 96 45.7605 95.872 45.0351 95.616C44.3098 95.3493 43.7605 94.9547 43.3871 94.432C43.0245 93.9093 42.8431 93.2427 42.8431 92.432C42.8431 92.176 42.8591 91.904 42.8911 91.616C42.9338 91.3173 42.9765 91.0293 43.0191 90.752C43.0725 90.4747 43.1205 90.2347 43.1631 90.032C43.2058 89.8293 43.2378 89.6853 43.2591 89.6L44.7151 89.872C44.6831 90.0427 44.6351 90.272 44.5711 90.56C44.5178 90.848 44.4645 91.1573 44.4111 91.488C44.3578 91.8187 44.3311 92.1333 44.3311 92.432C44.3311 92.8267 44.3951 93.168 44.5231 93.456C44.6511 93.744 44.8485 93.9787 45.1151 94.16C45.3925 94.3413 45.7445 94.4747 46.1711 94.56C46.6085 94.6347 47.1418 94.672 47.7711 94.672H52.3471V87.984H53.8511V96H47.7391ZM46.4271 87.984V86.432H47.8991V87.984H46.4271ZM48.8111 87.984V86.432H50.2831V87.984H48.8111ZM58.0389 96V94.672H59.9589V96H58.0389ZM56.5509 96V84.576H58.0389V96H56.5509ZM59.9589 96V94.672C60.0122 94.672 60.0602 94.688 60.1029 94.72C60.1455 94.752 60.1775 94.7947 60.1989 94.848C60.2202 94.9013 60.2362 94.9707 60.2469 95.056C60.2682 95.1307 60.2789 95.2213 60.2789 95.328C60.2789 95.424 60.2682 95.5147 60.2469 95.6C60.2362 95.6853 60.2202 95.76 60.1989 95.824C60.1775 95.8773 60.1455 95.92 60.1029 95.952C60.0602 95.984 60.0122 96 59.9589 96ZM63.1691 96V94.672H64.8811V96H63.1691ZM59.9531 96C59.8891 96 59.8358 95.984 59.7931 95.952C59.7505 95.92 59.7185 95.8773 59.6971 95.824C59.6758 95.76 59.6598 95.6853 59.6491 95.6C59.6385 95.5147 59.6331 95.424 59.6331 95.328C59.6331 95.1893 59.6438 95.072 59.6651 94.976C59.6758 94.88 59.7078 94.8053 59.7611 94.752C59.8038 94.6987 59.8678 94.672 59.9531 94.672V96ZM59.9531 96V94.672H62.4331L61.6651 95.28V87.984H63.1691V96H59.9531ZM64.8811 96V94.672C64.9451 94.672 64.9985 94.688 65.0411 94.72C65.0838 94.752 65.1158 94.7947 65.1371 94.848C65.1585 94.9013 65.1745 94.9707 65.1851 95.056C65.1958 95.1307 65.2011 95.2213 65.2011 95.328C65.2011 95.424 65.1958 95.5147 65.1851 95.6C65.1745 95.6853 65.1585 95.76 65.1371 95.824C65.1158 95.8773 65.0838 95.92 65.0411 95.952C64.9985 95.984 64.9451 96 64.8811 96ZM61.6651 99.024V97.472H63.1691V99.024H61.6651ZM68.267 96V94.672H69.995V96H68.267ZM64.875 96C64.811 96 64.7577 95.984 64.715 95.952C64.6723 95.92 64.6403 95.8773 64.619 95.824C64.5977 95.76 64.5817 95.6853 64.571 95.6C64.5603 95.5147 64.555 95.424 64.555 95.328C64.555 95.1893 64.5657 95.072 64.587 94.976C64.5977 94.88 64.6297 94.8053 64.683 94.752C64.7257 94.6987 64.7897 94.672 64.875 94.672V96ZM66.779 96V84.576H68.267V96H66.779ZM64.875 96V94.672H66.779V96H64.875ZM69.995 96V94.672C70.0483 94.672 70.0963 94.688 70.139 94.72C70.1817 94.752 70.2137 94.7947 70.235 94.848C70.2563 94.9013 70.2723 94.9707 70.283 95.056C70.3043 95.1307 70.315 95.2213 70.315 95.328C70.315 95.424 70.3043 95.5147 70.283 95.6C70.2723 95.6853 70.2563 95.76 70.235 95.824C70.2137 95.8773 70.1817 95.92 70.139 95.952C70.0963 95.984 70.0483 96 69.995 96ZM80.496 96V94.672H82.224V96H80.496ZM70 96V94.672H80.768L79.424 95.856V92.192C79.424 91.5413 79.3333 91.008 79.152 90.592C78.9813 90.1653 78.72 89.8507 78.368 89.648C78.016 89.4347 77.5787 89.328 77.056 89.328C76.5973 89.328 76.1653 89.408 75.76 89.568C75.3547 89.728 74.9813 89.9413 74.64 90.208C74.2987 90.464 73.9787 90.7467 73.68 91.056C73.3813 91.3653 73.1093 91.6747 72.864 91.984C72.6293 92.2933 72.416 92.5707 72.224 92.816L71.776 91.568C72.1387 91.1093 72.496 90.672 72.848 90.256C73.2 89.8293 73.5787 89.4453 73.984 89.104C74.4 88.7627 74.8587 88.4907 75.36 88.288C75.872 88.0853 76.4587 87.984 77.12 87.984C77.8667 87.984 78.4853 88.112 78.976 88.368C79.4667 88.624 79.8507 88.96 80.128 89.376C80.416 89.792 80.6187 90.2507 80.736 90.752C80.8533 91.2427 80.912 91.7227 80.912 92.192V96H70ZM71.072 94.672V84.576H72.56V94.672H71.072ZM70 96C69.936 96 69.8827 95.984 69.84 95.952C69.7973 95.92 69.7653 95.8773 69.744 95.824C69.7227 95.76 69.7067 95.6853 69.696 95.6C69.6853 95.5147 69.68 95.424 69.68 95.328C69.68 95.1893 69.6907 95.072 69.712 94.976C69.7227 94.88 69.7547 94.8053 69.808 94.752C69.8507 94.6987 69.9147 94.672 70 94.672V96ZM82.224 96V94.672C82.288 94.672 82.3413 94.688 82.384 94.72C82.4267 94.752 82.4587 94.7947 82.48 94.848C82.5013 94.9013 82.5173 94.9707 82.528 95.056C82.5387 95.1307 82.544 95.2213 82.544 95.328C82.544 95.424 82.5387 95.5147 82.528 95.6C82.5173 95.6853 82.5013 95.76 82.48 95.824C82.4587 95.8773 82.4267 95.92 82.384 95.952C82.3413 95.984 82.288 96 82.224 96ZM84.1228 96V84.576H85.6108V96H84.1228ZM82.2188 96V94.672H84.1228V96H82.2188ZM82.2188 96C82.1547 96 82.1014 95.984 82.0587 95.952C82.0161 95.92 81.9841 95.8773 81.9627 95.824C81.9414 95.76 81.9254 95.6853 81.9147 95.6C81.9041 95.5147 81.8987 95.424 81.8987 95.328C81.8987 95.1893 81.9094 95.072 81.9307 94.976C81.9414 94.88 81.9734 94.8053 82.0267 94.752C82.0694 94.6987 82.1334 94.672 82.2188 94.672V96ZM88.3165 96V84.576H89.8045V96H88.3165ZM104.445 96V94.672H106.157V96H104.445ZM100.045 99.968C99.1805 99.968 98.3965 99.808 97.6925 99.488C96.9992 99.1787 96.4498 98.736 96.0445 98.16C95.6498 97.5947 95.4525 96.9493 95.4525 96.224C95.4525 96 95.4685 95.7067 95.5005 95.344C95.5432 94.9813 95.5912 94.576 95.6445 94.128C95.7085 93.68 95.7725 93.2267 95.8365 92.768C95.9112 92.3093 95.9805 91.8667 96.0445 91.44L97.5325 91.664C97.4152 92.4 97.3085 93.0773 97.2125 93.696C97.1272 94.304 97.0578 94.8267 97.0045 95.264C96.9618 95.6907 96.9405 96.0107 96.9405 96.224C96.9405 96.6933 97.0685 97.1093 97.3245 97.472C97.5805 97.8347 97.9432 98.1173 98.4125 98.32C98.8818 98.5333 99.4258 98.64 100.045 98.64C100.663 98.64 101.186 98.5387 101.613 98.336C102.05 98.144 102.381 97.8773 102.605 97.536C102.829 97.1947 102.941 96.7893 102.941 96.32V84.576H104.445V96.32C104.445 97.0773 104.247 97.728 103.852 98.272C103.458 98.816 102.93 99.232 102.269 99.52C101.607 99.8187 100.866 99.968 100.045 99.968ZM106.157 96V94.672C106.221 94.672 106.274 94.688 106.317 94.72C106.359 94.752 106.391 94.7947 106.413 94.848C106.434 94.9013 106.45 94.9707 106.461 95.056C106.471 95.1307 106.477 95.2213 106.477 95.328C106.477 95.424 106.471 95.5147 106.461 95.6C106.45 95.6853 106.434 95.76 106.413 95.824C106.391 95.8773 106.359 95.92 106.317 95.952C106.274 95.984 106.221 96 106.157 96ZM114.172 96V94.672H115.9V96H114.172ZM106.156 96C106.092 96 106.039 95.984 105.996 95.952C105.954 95.92 105.922 95.8773 105.9 95.824C105.879 95.76 105.863 95.6853 105.852 95.6C105.842 95.5147 105.836 95.424 105.836 95.328C105.836 95.1893 105.847 95.072 105.868 94.976C105.879 94.88 105.911 94.8053 105.964 94.752C106.007 94.6987 106.071 94.672 106.156 94.672V96ZM106.156 96V94.672H113.164L112.684 95.072V91.376C112.684 90.704 112.471 90.1973 112.044 89.856C111.628 89.5147 110.978 89.344 110.092 89.344C109.826 89.344 109.442 89.3653 108.94 89.408C108.45 89.4507 107.927 89.5147 107.372 89.6L107.212 88.384C107.65 88.2773 108.124 88.1867 108.636 88.112C109.148 88.0267 109.644 87.984 110.124 87.984C110.956 87.984 111.671 88.1173 112.268 88.384C112.876 88.6507 113.346 89.04 113.676 89.552C114.007 90.0533 114.172 90.6613 114.172 91.376V96H106.156ZM115.9 96V94.672C115.964 94.672 116.012 94.688 116.044 94.72C116.087 94.752 116.119 94.7947 116.14 94.848C116.172 94.9013 116.194 94.9707 116.204 95.056C116.215 95.1307 116.22 95.2213 116.22 95.328C116.22 95.424 116.215 95.5147 116.204 95.6C116.194 95.6853 116.172 95.76 116.14 95.824C116.119 95.8773 116.087 95.92 116.044 95.952C116.012 95.984 115.964 96 115.9 96ZM109.468 99.024V97.472H110.972V99.024H109.468ZM124.594 96C124.21 96 123.832 95.9307 123.458 95.792C123.096 95.6427 122.749 95.4133 122.418 95.104L123.362 94.112C123.597 94.304 123.81 94.448 124.002 94.544C124.194 94.6293 124.392 94.672 124.594 94.672H127.49L126.834 95.312V91.568C126.834 91.376 126.813 91.1093 126.77 90.768C126.738 90.416 126.685 90.0213 126.61 89.584C126.546 89.136 126.466 88.6827 126.37 88.224L127.826 87.984C127.901 88.368 127.976 88.7893 128.05 89.248C128.125 89.7067 128.189 90.144 128.242 90.56C128.296 90.976 128.322 91.312 128.322 91.568V96H124.594ZM115.906 96V94.672H118.242L117.874 95.04V89.6H119.362V96H115.906ZM119.362 96V94.672H121.026C121.389 94.672 121.661 94.6187 121.842 94.512C122.024 94.4053 122.152 94.192 122.226 93.872C122.301 93.552 122.338 93.0827 122.338 92.464V88.8H123.842V92.464C123.842 93.328 123.741 94.0213 123.538 94.544C123.346 95.0667 123.048 95.44 122.642 95.664C122.237 95.888 121.698 96 121.026 96H119.362ZM115.906 96C115.842 96 115.789 95.984 115.746 95.952C115.704 95.92 115.672 95.8773 115.65 95.824C115.629 95.76 115.613 95.6853 115.602 95.6C115.592 95.5147 115.586 95.424 115.586 95.328C115.586 95.1893 115.597 95.072 115.618 94.976C115.629 94.88 115.661 94.8053 115.714 94.752C115.757 94.6987 115.821 94.672 115.906 94.672V96Z" fill="black"/>
</svg>
