<svg width="44" height="44" viewBox="0 0 44 44" fill="none" xmlns="http://www.w3.org/2000/svg">
<rect width="44" height="44" rx="6" fill="#E4F3E5"/>
<path d="M32.6641 14.8112C32.4822 14.6706 32.2703 14.5739 32.0449 14.5289C31.8194 14.4838 31.5866 14.4916 31.3647 14.5516L31.0384 14.6397C29.2759 15.115 25.9947 16 22 16C18.0053 16 14.7241 15.115 12.9616 14.6397L12.6353 14.5516C12.4133 14.4925 12.1807 14.4853 11.9554 14.5304C11.7302 14.5755 11.5183 14.6718 11.3361 14.8117C11.154 14.9517 11.0064 15.1316 10.9048 15.3376C10.8031 15.5437 10.7502 15.7703 10.75 16V28C10.75 28.3978 10.908 28.7794 11.1893 29.0607C11.4706 29.342 11.8522 29.5 12.25 29.5C12.3823 29.4999 12.514 29.4826 12.6419 29.4484L12.94 29.3678C14.6997 28.8897 17.9847 28 22 28C26.0153 28 29.3003 28.8897 31.0647 29.3678L31.3628 29.4484C31.5849 29.5078 31.8178 29.5153 32.0432 29.4703C32.2687 29.4254 32.4809 29.3292 32.6633 29.1892C32.8457 29.0492 32.9935 28.8691 33.0952 28.6629C33.1969 28.4568 33.2499 28.2299 33.25 28V16C33.2506 15.7701 33.1981 15.5431 33.0964 15.3369C32.9948 15.1307 32.8468 14.9508 32.6641 14.8112ZM12.5706 16.0872C14.4006 16.5812 17.8066 17.5 22 17.5C26.1934 17.5 29.5994 16.5812 31.4294 16.0872L31.75 16V27.1337L26.3059 21.6897C26.1666 21.5504 26.0013 21.4398 25.8193 21.3644C25.6372 21.289 25.4422 21.2502 25.2452 21.2502C25.0481 21.2502 24.8531 21.289 24.6711 21.3644C24.489 21.4398 24.3237 21.5504 24.1844 21.6897L22.3094 23.5647L18.1844 19.4397C17.9031 19.1586 17.5217 19.0007 17.1241 19.0007C16.7264 19.0007 16.345 19.1586 16.0638 19.4397L12.25 23.2534V16L12.5706 16.0872ZM30.0475 27.5509C28.5357 27.1724 27.0014 26.8906 25.4537 26.7072L23.3716 24.625L25.2466 22.75L30.0475 27.5509ZM12.5434 27.9194L12.25 28V25.375L17.125 20.5L23.1484 26.5234C22.7734 26.5084 22.3906 26.5006 22 26.5C17.7812 26.5 14.245 27.4591 12.5434 27.9194ZM28 20.125C28 19.9025 28.066 19.685 28.1896 19.5C28.3132 19.315 28.4889 19.1708 28.6945 19.0856C28.9 19.0005 29.1262 18.9782 29.3445 19.0216C29.5627 19.065 29.7632 19.1722 29.9205 19.3295C30.0778 19.4868 30.185 19.6873 30.2284 19.9055C30.2718 20.1237 30.2495 20.3499 30.1644 20.5555C30.0792 20.7611 29.935 20.9368 29.75 21.0604C29.565 21.184 29.3475 21.25 29.125 21.25C28.8266 21.25 28.5405 21.1315 28.3295 20.9205C28.1185 20.7095 28 20.4234 28 20.125Z" fill="#4CAF50"/>
</svg>
