<svg width="44" height="44" viewBox="0 0 44 44" fill="none" xmlns="http://www.w3.org/2000/svg">
<rect width="44" height="44" rx="6" fill="#E4F3E5"/>
<path d="M31.6486 29.8751C30.2208 27.4067 28.0205 25.6367 25.4527 24.7976C26.7229 24.0415 27.7097 22.8893 28.2617 21.518C28.8136 20.1468 28.9002 18.6322 28.5081 17.207C28.116 15.7818 27.2668 14.5247 26.0911 13.6287C24.9154 12.7328 23.4781 12.2476 21.9999 12.2476C20.5217 12.2476 19.0844 12.7328 17.9087 13.6287C16.7329 14.5247 15.8838 15.7818 15.4917 17.207C15.0996 18.6322 15.1862 20.1468 15.7381 21.518C16.2901 22.8893 17.2769 24.0415 18.5471 24.7976C15.9793 25.6357 13.779 27.4057 12.3511 29.8751C12.2988 29.9605 12.264 30.0555 12.249 30.1545C12.2339 30.2535 12.2389 30.3545 12.2635 30.4516C12.2881 30.5487 12.332 30.6399 12.3924 30.7197C12.4528 30.7996 12.5286 30.8666 12.6153 30.9167C12.7021 30.9667 12.798 30.999 12.8973 31.0114C12.9967 31.0238 13.0976 31.0163 13.194 30.9891C13.2904 30.9619 13.3803 30.9157 13.4586 30.8532C13.5368 30.7907 13.6018 30.7131 13.6496 30.6251C15.4158 27.5726 18.5377 25.7501 21.9999 25.7501C25.4621 25.7501 28.584 27.5726 30.3502 30.6251C30.398 30.7131 30.4629 30.7907 30.5412 30.8532C30.6194 30.9157 30.7094 30.9619 30.8058 30.9891C30.9022 31.0163 31.0031 31.0238 31.1024 31.0114C31.2018 30.999 31.2977 30.9667 31.3844 30.9167C31.4712 30.8666 31.547 30.7996 31.6074 30.7197C31.6678 30.6399 31.7116 30.5487 31.7363 30.4516C31.7609 30.3545 31.7658 30.2535 31.7508 30.1545C31.7357 30.0555 31.701 29.9605 31.6486 29.8751ZM16.7499 19.0001C16.7499 17.9618 17.0578 16.9467 17.6347 16.0834C18.2115 15.22 19.0315 14.5471 19.9908 14.1497C20.9501 13.7524 22.0057 13.6484 23.0241 13.851C24.0425 14.0536 24.978 14.5536 25.7122 15.2878C26.4464 16.022 26.9464 16.9575 27.149 17.9759C27.3516 18.9943 27.2476 20.0499 26.8503 21.0092C26.4529 21.9685 25.78 22.7884 24.9166 23.3653C24.0533 23.9422 23.0382 24.2501 21.9999 24.2501C20.608 24.2486 19.2735 23.695 18.2892 22.7108C17.305 21.7265 16.7514 20.392 16.7499 19.0001Z" fill="#4CAF50"/>
</svg>
