<svg width="334" height="64" viewBox="0 0 334 64" fill="none" xmlns="http://www.w3.org/2000/svg">
<rect width="334" height="64" rx="30" fill="#EDF7EE"/>
<g clip-path="url(#clip0_40_1204)">
<path d="M53.4401 32.99L53.4301 33.01C53.4701 32.68 53.5101 32.34 53.5101 32C53.5101 31.66 53.4801 31.34 53.4401 31.01L53.4501 31.03L55.8901 29.11L53.4601 24.89L50.5901 26.05L50.6001 26.06C50.0801 25.66 49.5101 25.32 48.8901 25.06H48.9001L48.4401 22H43.5701L43.1301 25.07H43.1401C42.5201 25.33 41.9501 25.67 41.4301 26.07L41.4401 26.06L38.5601 24.89L36.1201 29.11L38.5601 31.03L38.5701 31.01C38.5301 31.34 38.5001 31.66 38.5001 32C38.5001 32.34 38.5301 32.68 38.5801 33.01L38.5701 32.99L36.4701 34.64L36.1401 34.9L38.5701 39.1L41.4501 37.95L41.4301 37.91C41.9601 38.32 42.5301 38.66 43.1601 38.92H43.1301L43.5801 42H48.4301C48.4301 42 48.4601 41.82 48.4901 41.58L48.8701 38.93H48.8601C49.4801 38.67 50.0601 38.33 50.5901 37.92L50.5701 37.96L53.4501 39.11L55.8801 34.91C55.8801 34.91 55.7401 34.79 55.5501 34.65L53.4401 32.99ZM46.0001 35.5C44.0701 35.5 42.5001 33.93 42.5001 32C42.5001 30.07 44.0701 28.5 46.0001 28.5C47.9301 28.5 49.5001 30.07 49.5001 32C49.5001 33.93 47.9301 35.5 46.0001 35.5Z" fill="#060606"/>
</g>
<path fill-rule="evenodd" clip-rule="evenodd" d="M116.55 36.721C116.248 36.9058 116.021 37.1913 115.91 37.527C115.798 37.8627 115.809 38.227 115.94 38.5556C116.071 38.8842 116.314 39.1559 116.626 39.3228C116.938 39.4896 117.299 39.5408 117.645 39.4674C117.991 39.3939 118.3 39.2006 118.517 38.9214C118.734 38.6422 118.846 38.2952 118.832 37.9417C118.818 37.5883 118.68 37.251 118.442 36.9896C118.204 36.7281 117.88 36.5593 117.53 36.513C117.511 36.4459 117.494 36.3784 117.478 36.3105C117.41 36.0015 117.357 35.6895 117.318 35.3755C117.277 35.0581 117.254 34.7386 117.248 34.4185C117.247 34.3306 117.25 34.2427 117.256 34.155C117.448 34.0997 117.641 34.0502 117.833 34.0065C118.054 33.9565 118.185 34.2165 118.29 34.4275L118.333 34.512H124.208C124.322 34.295 124.582 33.949 124.833 34.0065C125.102 34.0678 125.37 34.14 125.638 34.223L125.636 34.2235C125.635 34.2225 125.635 34.2228 125.636 34.2245C125.638 34.2315 125.649 34.2645 125.66 34.3345C125.673 34.4158 125.681 34.52 125.685 34.647C125.692 34.899 125.678 35.2055 125.648 35.5145C125.618 35.823 125.574 36.1215 125.524 36.357C125.513 36.4093 125.502 36.457 125.491 36.5H124.833C124.74 36.5 124.649 36.5259 124.57 36.5748C124.492 36.6236 124.428 36.6935 124.386 36.7765L123.886 37.7765C123.851 37.8459 123.833 37.9224 123.833 38V39C123.833 39.1326 123.886 39.2598 123.98 39.3536C124.073 39.4473 124.201 39.5 124.333 39.5H125.333V38.5H124.833V38.118L125.142 37.5H126.524L126.833 38.118V38.5H126.333V39.5H127.333C127.466 39.5 127.593 39.4473 127.687 39.3536C127.781 39.2598 127.833 39.1326 127.833 39V38C127.833 37.9224 127.815 37.8459 127.78 37.7765L127.28 36.7765C127.239 36.6935 127.175 36.6236 127.096 36.5748C127.017 36.5259 126.926 36.5 126.833 36.5H126.515C126.569 36.2335 126.613 35.9225 126.643 35.6105C126.676 35.2735 126.693 34.924 126.685 34.619L126.684 34.605C128.678 35.4475 130.333 36.833 130.333 38.285V41H112.333V38.285C112.333 36.769 114.138 35.325 116.249 34.4965C116.254 34.8075 116.284 35.159 116.326 35.4995C116.372 35.867 116.435 36.2325 116.504 36.5335C116.519 36.5978 116.534 36.6603 116.55 36.721ZM117.333 38.5075C117.602 38.5075 117.833 38.2875 117.833 38C117.833 37.713 117.602 37.4925 117.333 37.4925C117.064 37.4925 116.833 37.7125 116.833 38C116.833 38.287 117.064 38.5075 117.333 38.5075ZM121.333 32C122.394 32 123.412 31.5786 124.162 30.8284C124.912 30.0783 125.333 29.0609 125.333 28C125.333 26.9391 124.912 25.9217 124.162 25.1716C123.412 24.4214 122.394 24 121.333 24C120.272 24 119.255 24.4214 118.505 25.1716C117.755 25.9217 117.333 26.9391 117.333 28C117.333 29.0609 117.755 30.0783 118.505 30.8284C119.255 31.5786 120.272 32 121.333 32ZM121.333 33C124.095 33 126.333 30.7615 126.333 28C126.333 25.2385 124.095 23 121.333 23C118.572 23 116.333 25.2385 116.333 28C116.333 30.7615 118.572 33 121.333 33Z" fill="black"/>
<path d="M196.667 42C197.767 42 198.667 41.1 198.667 40H194.667C194.667 41.1 195.557 42 196.667 42ZM202.667 36V31C202.667 27.93 201.027 25.36 198.167 24.68V24C198.167 23.17 197.497 22.5 196.667 22.5C195.837 22.5 195.167 23.17 195.167 24V24.68C192.297 25.36 190.667 27.92 190.667 31V36L188.667 38V39H204.667V38L202.667 36Z" fill="#050505"/>
<rect x="260" y="12" width="40" height="40" rx="15" fill="#4CAF50"/>
<g clip-path="url(#clip1_40_1204)">
<path d="M278 40V34H282V40H287V32H290L280 23L270 32H273V40H278Z" fill="#060606"/>
</g>
<defs>
<clipPath id="clip0_40_1204">
<rect width="24" height="24" fill="white" transform="translate(34 20)"/>
</clipPath>
<clipPath id="clip1_40_1204">
<rect width="24" height="24" fill="white" transform="translate(268 20)"/>
</clipPath>
</defs>
</svg>
