<svg width="158" height="54" viewBox="0 0 158 54" fill="none" xmlns="http://www.w3.org/2000/svg">
<rect width="158" height="54" rx="27" fill="#4CAF50"/>
<rect x="8" y="9" width="36" height="36" rx="18" fill="#FEFEFE"/>
<path d="M31.75 28.9999C31.75 29.1482 31.706 29.2932 31.6236 29.4166C31.5412 29.5399 31.4241 29.6361 31.287 29.6928C31.15 29.7496 30.9992 29.7644 30.8537 29.7355C30.7082 29.7066 30.5746 29.6351 30.4697 29.5302C30.3648 29.4253 30.2934 29.2917 30.2644 29.1462C30.2355 29.0007 30.2503 28.8499 30.3071 28.7129C30.3639 28.5759 30.46 28.4587 30.5833 28.3763C30.7067 28.2939 30.8517 28.2499 31 28.2499C31.1989 28.2499 31.3897 28.3289 31.5303 28.4696C31.671 28.6102 31.75 28.801 31.75 28.9999ZM31.4656 31.4555C31.3558 32.1635 30.9966 32.809 30.4528 33.2756C29.9091 33.7421 29.2165 33.999 28.5 33.9999H27C26.2046 33.9991 25.442 33.6827 24.8796 33.1203C24.3172 32.5579 24.0008 31.7953 24 30.9999V28.468C23.0335 28.3463 22.1446 27.8759 21.5002 27.1453C20.8558 26.4147 20.5001 25.4741 20.5 24.4999V21.4999C20.5 21.3673 20.5527 21.2401 20.6464 21.1464C20.7402 21.0526 20.8674 20.9999 21 20.9999H22.5C22.6326 20.9999 22.7598 21.0526 22.8536 21.1464C22.9473 21.2401 23 21.3673 23 21.4999C23 21.6325 22.9473 21.7597 22.8536 21.8535C22.7598 21.9472 22.6326 21.9999 22.5 21.9999H21.5V24.4999C21.5 24.8973 21.5789 25.2907 21.7321 25.6573C21.8854 26.0239 22.1099 26.3564 22.3928 26.6355C22.6756 26.9146 23.0111 27.1347 23.3797 27.2831C23.7483 27.4315 24.1427 27.5052 24.54 27.4999C26.1719 27.4787 27.5 26.1093 27.5 24.448V21.9999H26.5C26.3674 21.9999 26.2402 21.9472 26.1464 21.8535C26.0527 21.7597 26 21.6325 26 21.4999C26 21.3673 26.0527 21.2401 26.1464 21.1464C26.2402 21.0526 26.3674 20.9999 26.5 20.9999H28C28.1326 20.9999 28.2598 21.0526 28.3536 21.1464C28.4473 21.2401 28.5 21.3673 28.5 21.4999V24.448C28.5 26.5005 26.9669 28.2162 25 28.4674V30.9999C25 31.5303 25.2107 32.039 25.5858 32.4141C25.9609 32.7892 26.4696 32.9999 27 32.9999H28.5C28.9542 32.9992 29.3946 32.8441 29.7492 32.5602C30.1037 32.2764 30.3512 31.8804 30.4513 31.4374C29.8474 31.3018 29.3153 30.947 28.958 30.4417C28.6006 29.9363 28.4434 29.3164 28.5168 28.7019C28.5901 28.0874 28.8888 27.5219 29.3551 27.1149C29.8213 26.7078 30.4219 26.4882 31.0407 26.4985C31.6596 26.5088 32.2526 26.7483 32.705 27.1706C33.1574 27.5929 33.4372 28.168 33.49 28.7846C33.5429 29.4013 33.3651 30.0156 32.9912 30.5087C32.6172 31.0019 32.0737 31.3388 31.4656 31.4543V31.4555ZM32.5 28.9999C32.5 28.7032 32.412 28.4132 32.2472 28.1666C32.0824 27.9199 31.8481 27.7276 31.574 27.6141C31.2999 27.5006 30.9983 27.4709 30.7074 27.5287C30.4164 27.5866 30.1491 27.7295 29.9393 27.9392C29.7296 28.149 29.5867 28.4163 29.5288 28.7073C29.4709 28.9982 29.5006 29.2998 29.6142 29.5739C29.7277 29.848 29.92 30.0823 30.1666 30.2471C30.4133 30.4119 30.7033 30.4999 31 30.4999C31.3978 30.4999 31.7794 30.3419 32.0607 30.0606C32.342 29.7793 32.5 29.3977 32.5 28.9999Z" fill="#050505"/>
<rect x="56" y="8" width="94" height="38" rx="19" fill="#FEFEFE"/>
<path d="M83.308 30.172V31H79.312C78.6 31 78.04 30.9 77.632 30.7C77.224 30.5 76.928 30.184 76.744 29.752C76.568 29.312 76.48 28.716 76.48 27.964C76.48 27.22 76.564 26.624 76.732 26.176C76.908 25.728 77.192 25.4 77.584 25.192C77.984 24.984 78.52 24.88 79.192 24.88C79.488 24.88 79.94 24.896 80.548 24.928C81.164 24.952 81.628 24.98 81.94 25.012V30.172H83.308ZM77.404 27.94C77.404 28.492 77.468 28.928 77.596 29.248C77.732 29.568 77.948 29.804 78.244 29.956C78.54 30.1 78.948 30.172 79.468 30.172H81.016V25.792C80.312 25.744 79.768 25.72 79.384 25.72C78.656 25.72 78.144 25.892 77.848 26.236C77.552 26.58 77.404 27.148 77.404 27.94ZM78.34 22.876H79.252V23.884H78.34V22.876ZM79.84 22.876H80.752V23.884H79.84V22.876ZM87.8125 30.172V31H83.3125V30.172H85.1005V25H86.0245V30.172H87.8125ZM84.3445 31.96H85.2565V32.968H84.3445V31.96ZM85.8445 31.96H86.7565V32.968H85.8445V31.96ZM97.9885 30.172V31H94.6285C94.1405 31 93.6965 30.832 93.2965 30.496C93.0085 30.832 92.6285 31 92.1565 31H87.8125V30.172H89.7565V25.6H90.6805V30.172H91.8685C92.2365 30.172 92.5005 30.016 92.6605 29.704C92.8285 29.384 92.9125 28.984 92.9125 28.504V25.6H93.8365V28.492C93.8365 28.98 93.7805 29.404 93.6685 29.764C93.7885 29.868 93.9405 29.964 94.1245 30.052C94.3085 30.132 94.4925 30.172 94.6765 30.172H95.9365V27.568C95.9365 27.264 95.9125 26.884 95.8645 26.428C95.8245 25.964 95.7765 25.5 95.7205 25.036L96.4765 25C96.5805 25.456 96.6685 25.94 96.7405 26.452C96.8205 26.964 96.8605 27.368 96.8605 27.664V30.172H97.9885ZM102.484 30.172V31H97.9844V30.172H99.7724V25H100.696V30.172H102.484ZM99.0164 31.96H99.9284V32.968H99.0164V31.96ZM100.516 31.96H101.428V32.968H100.516V31.96ZM105.196 25V31H102.484V30.172H104.272V25H105.196ZM105.964 23.344L103.516 23.824L103.408 23.44L103.984 23.284C103.712 23.06 103.576 22.776 103.576 22.432C103.576 22.136 103.68 21.884 103.888 21.676C104.096 21.46 104.364 21.352 104.692 21.352C104.876 21.352 105.048 21.384 105.208 21.448C105.368 21.512 105.488 21.576 105.568 21.64L105.448 22.096C105.4 22.056 105.324 22.016 105.22 21.976C105.124 21.936 105.016 21.916 104.896 21.916C104.688 21.916 104.516 21.984 104.38 22.12C104.252 22.256 104.188 22.416 104.188 22.6C104.188 22.832 104.28 23.016 104.464 23.152L105.832 22.792L105.964 23.344ZM111 31H109.5V31.132C109.5 33.036 108.84 33.988 107.52 33.988C107.392 33.988 107.272 33.984 107.16 33.976C107.056 33.968 106.964 33.96 106.884 33.952L106.632 33.928V33.112C107.032 33.144 107.284 33.16 107.388 33.16C107.788 33.16 108.084 33 108.276 32.68C108.476 32.368 108.576 31.928 108.576 31.36V25.012H109.5V30.172H111V31ZM113.404 22.384V31H111.004V30.172H112.48V22.384H113.404ZM115.564 22.384H116.488V31H115.564V22.384Z" fill="#050505"/>
<path d="M137.707 25.7924L132.707 20.7924C132.519 20.605 132.265 20.4998 132 20.4998C131.735 20.4998 131.481 20.605 131.293 20.7924L126.293 25.7924C126.2 25.885 126.126 25.9953 126.076 26.1167C126.025 26.2382 126 26.3684 126 26.4999V32.4999C126 32.6325 126.053 32.7597 126.146 32.8535C126.24 32.9472 126.367 32.9999 126.5 32.9999H137.5C137.633 32.9999 137.76 32.9472 137.854 32.8535C137.947 32.7597 138 32.6325 138 32.4999V26.4999C138 26.3684 137.975 26.2382 137.924 26.1167C137.874 25.9953 137.8 25.885 137.707 25.7924ZM137 31.9999H127V26.4999L132 21.4999L137 26.4999V31.9999Z" fill="#050505"/>
</svg>
