<svg width="168" height="54" viewBox="0 0 168 54" fill="none" xmlns="http://www.w3.org/2000/svg">
<rect width="168" height="54" rx="27" fill="#4CAF50"/>
<rect x="8" y="8" width="104" height="38" rx="18" fill="#FEFEFE"/>
<path d="M20.004 30.832C19.684 30.472 19.444 30.112 19.284 29.752C19.132 29.392 19.056 29.008 19.056 28.6C19.056 28.2 19.128 27.832 19.272 27.496C19.416 27.16 19.616 26.872 19.872 26.632C20.128 26.384 20.424 26.192 20.76 26.056C21.104 25.92 21.472 25.852 21.864 25.852C22.16 25.852 22.444 25.892 22.716 25.972C22.996 26.052 23.248 26.164 23.472 26.308L22.956 27.016C22.788 26.904 22.616 26.824 22.44 26.776C22.272 26.728 22.084 26.704 21.876 26.704C21.508 26.704 21.18 26.788 20.892 26.956C20.612 27.116 20.388 27.34 20.22 27.628C20.06 27.908 19.98 28.232 19.98 28.6C19.98 28.896 20.036 29.18 20.148 29.452C20.268 29.716 20.452 29.988 20.7 30.268L20.004 30.832ZM18.48 31V30.148H24.036V31H18.48ZM26.6033 31V30.148H28.0673V31H26.6033ZM25.6793 31V22.396H26.6033V31H25.6793ZM28.0673 31V30.148C28.1153 30.148 28.1553 30.16 28.1873 30.184C28.2193 30.2 28.2433 30.228 28.2593 30.268C28.2753 30.3 28.2873 30.344 28.2953 30.4C28.3033 30.448 28.3073 30.504 28.3073 30.568C28.3073 30.632 28.3033 30.692 28.2953 30.748C28.2873 30.804 28.2753 30.852 28.2593 30.892C28.2433 30.924 28.2193 30.952 28.1873 30.976C28.1553 30.992 28.1153 31 28.0673 31ZM30.2984 31V30.148H31.5944V31H30.2984ZM28.0664 31C28.0184 31 27.9784 30.992 27.9464 30.976C27.9144 30.952 27.8904 30.924 27.8744 30.892C27.8584 30.852 27.8464 30.804 27.8384 30.748C27.8304 30.692 27.8264 30.632 27.8264 30.568C27.8264 30.48 27.8344 30.408 27.8504 30.352C27.8584 30.288 27.8824 30.24 27.9224 30.208C27.9544 30.168 28.0024 30.148 28.0664 30.148V31ZM28.0664 31V30.148H29.7944L29.3624 30.496V25H30.2984V31H28.0664ZM31.5944 31V30.148C31.6424 30.148 31.6824 30.16 31.7144 30.184C31.7464 30.2 31.7704 30.228 31.7864 30.268C31.8024 30.3 31.8144 30.344 31.8224 30.4C31.8304 30.448 31.8344 30.504 31.8344 30.568C31.8344 30.632 31.8304 30.692 31.8224 30.748C31.8144 30.804 31.8024 30.852 31.7864 30.892C31.7704 30.924 31.7464 30.952 31.7144 30.976C31.6824 30.992 31.6424 31 31.5944 31ZM29.3624 33.16V32.08H30.2984V33.16H29.3624ZM31.5938 31V30.148H39.5498L38.6858 30.928V28.108C38.6858 27.604 38.6138 27.188 38.4698 26.86C38.3338 26.524 38.1258 26.272 37.8458 26.104C37.5738 25.936 37.2298 25.852 36.8138 25.852C36.4618 25.852 36.1338 25.912 35.8298 26.032C35.5338 26.144 35.2578 26.296 35.0018 26.488C34.7458 26.672 34.5058 26.88 34.2818 27.112C34.0658 27.336 33.8658 27.564 33.6818 27.796C33.4978 28.028 33.3298 28.24 33.1777 28.432L32.8658 27.58C33.1138 27.268 33.3658 26.96 33.6218 26.656C33.8778 26.352 34.1578 26.076 34.4618 25.828C34.7658 25.58 35.1098 25.38 35.4938 25.228C35.8778 25.076 36.3178 25 36.8138 25C37.3818 25 37.8458 25.096 38.2057 25.288C38.5738 25.48 38.8578 25.736 39.0578 26.056C39.2658 26.368 39.4098 26.704 39.4898 27.064C39.5698 27.424 39.6098 27.772 39.6098 28.108V31H31.5938ZM32.3857 30.148V22.396H33.3218V30.148H32.3857ZM31.5938 31C31.5457 31 31.5057 30.992 31.4737 30.976C31.4417 30.952 31.4177 30.924 31.4017 30.892C31.3857 30.852 31.3737 30.804 31.3657 30.748C31.3577 30.692 31.3537 30.632 31.3537 30.568C31.3537 30.48 31.3617 30.408 31.3777 30.352C31.3857 30.288 31.4097 30.24 31.4497 30.208C31.4817 30.168 31.5297 30.148 31.5938 30.148V31ZM40.9917 31V30.148H46.8597L46.3317 30.688V22.396H47.2677V31H40.9917ZM42.9117 30.148V24.1H43.8357V30.148H42.9117ZM42.8157 23.296C42.6877 23.136 42.5877 22.98 42.5157 22.828C42.4517 22.676 42.4197 22.516 42.4197 22.348C42.4197 22.116 42.4757 21.908 42.5877 21.724C42.7077 21.54 42.8637 21.396 43.0557 21.292C43.2477 21.188 43.4557 21.136 43.6797 21.136C43.8077 21.136 43.9357 21.156 44.0637 21.196C44.1917 21.228 44.3037 21.276 44.3997 21.34L44.0877 21.88C44.0237 21.84 43.9597 21.816 43.8957 21.808C43.8397 21.792 43.7797 21.784 43.7157 21.784C43.5317 21.784 43.3837 21.836 43.2717 21.94C43.1677 22.044 43.1157 22.18 43.1157 22.348C43.1157 22.452 43.1357 22.552 43.1757 22.648C43.2237 22.744 43.2917 22.848 43.3797 22.96L42.8157 23.296ZM42.1917 23.296V22.66H44.5557V23.296H42.1917ZM49.3864 31V22.396H50.3104V31H49.3864ZM61.1858 31V30.148H62.4818V31H61.1858ZM57.9458 33.976C57.3138 33.976 56.7418 33.86 56.2298 33.628C55.7178 33.396 55.3138 33.072 55.0178 32.656C54.7218 32.24 54.5738 31.764 54.5738 31.228C54.5738 31.06 54.5858 30.84 54.6098 30.568C54.6418 30.288 54.6778 29.98 54.7178 29.644C54.7658 29.3 54.8178 28.956 54.8738 28.612C54.9298 28.26 54.9818 27.928 55.0298 27.616L55.9538 27.76C55.8658 28.312 55.7858 28.824 55.7138 29.296C55.6498 29.76 55.5978 30.16 55.5578 30.496C55.5258 30.824 55.5098 31.068 55.5098 31.228C55.5098 31.596 55.6098 31.92 55.8098 32.2C56.0178 32.488 56.3058 32.712 56.6738 32.872C57.0418 33.04 57.4658 33.124 57.9458 33.124C58.4258 33.124 58.8378 33.048 59.1818 32.896C59.5258 32.744 59.7898 32.532 59.9738 32.26C60.1578 31.988 60.2498 31.668 60.2498 31.3V22.396H61.1858V31.3C61.1858 31.86 61.0378 32.34 60.7418 32.74C60.4538 33.14 60.0658 33.444 59.5778 33.652C59.0898 33.868 58.5458 33.976 57.9458 33.976ZM62.4818 31V30.148C62.5298 30.148 62.5698 30.16 62.6018 30.184C62.6338 30.2 62.6578 30.228 62.6738 30.268C62.6898 30.3 62.7018 30.344 62.7098 30.4C62.7178 30.448 62.7218 30.504 62.7218 30.568C62.7218 30.632 62.7178 30.692 62.7098 30.748C62.7018 30.804 62.6898 30.852 62.6738 30.892C62.6578 30.924 62.6338 30.952 62.6018 30.976C62.5698 30.992 62.5298 31 62.4818 31ZM68.4244 31V30.148H69.7204V31H68.4244ZM62.4844 31C62.4364 31 62.3964 30.992 62.3644 30.976C62.3324 30.952 62.3084 30.924 62.2924 30.892C62.2764 30.852 62.2644 30.804 62.2564 30.748C62.2484 30.692 62.2444 30.632 62.2444 30.568C62.2444 30.48 62.2524 30.408 62.2684 30.352C62.2764 30.288 62.3004 30.24 62.3404 30.208C62.3724 30.168 62.4204 30.148 62.4844 30.148V31ZM62.4844 31V30.148H67.7764L67.4884 30.4V27.424C67.4884 26.904 67.3244 26.516 66.9964 26.26C66.6764 25.996 66.1844 25.864 65.5204 25.864C65.3124 25.864 65.0124 25.884 64.6204 25.924C64.2284 25.956 63.8164 26.004 63.3844 26.068L63.2764 25.3C63.6044 25.22 63.9644 25.152 64.3564 25.096C64.7484 25.032 65.1284 25 65.4964 25C66.1044 25 66.6244 25.096 67.0564 25.288C67.4964 25.472 67.8324 25.744 68.0644 26.104C68.3044 26.464 68.4244 26.904 68.4244 27.424V31H62.4844ZM69.7204 31V30.148C69.7684 30.148 69.8084 30.16 69.8404 30.184C69.8724 30.2 69.8964 30.228 69.9124 30.268C69.9284 30.3 69.9404 30.344 69.9484 30.4C69.9564 30.448 69.9604 30.504 69.9604 30.568C69.9604 30.632 69.9564 30.692 69.9484 30.748C69.9404 30.804 69.9284 30.852 69.9124 30.892C69.8964 30.924 69.8724 30.952 69.8404 30.976C69.8084 30.992 69.7684 31 69.7204 31ZM65.0284 33.16V32.08H65.9644V33.16H65.0284ZM76.0268 31C75.7548 31 75.4868 30.948 75.2228 30.844C74.9668 30.74 74.7188 30.576 74.4788 30.352L75.0908 29.716C75.2748 29.868 75.4388 29.98 75.5828 30.052C75.7268 30.116 75.8748 30.148 76.0268 30.148H78.1628L77.8028 30.532V27.664C77.8028 27.52 77.7868 27.316 77.7548 27.052C77.7308 26.788 77.6908 26.492 77.6348 26.164C77.5868 25.828 77.5268 25.492 77.4548 25.156L78.3668 25C78.4228 25.28 78.4788 25.592 78.5348 25.936C78.5908 26.28 78.6388 26.608 78.6788 26.92C78.7188 27.224 78.7388 27.472 78.7388 27.664V31H76.0268ZM69.7148 31V30.148H71.4668L71.2268 30.388V26.2H72.1508V31H69.7148ZM72.1508 31V30.148H73.5068C73.7788 30.148 73.9828 30.108 74.1188 30.028C74.2628 29.948 74.3628 29.788 74.4188 29.548C74.4748 29.308 74.5028 28.956 74.5028 28.492V25.6H75.4388V28.492C75.4388 29.116 75.3708 29.612 75.2348 29.98C75.1068 30.348 74.9028 30.612 74.6228 30.772C74.3428 30.924 73.9708 31 73.5068 31H72.1508ZM69.7148 31C69.6668 31 69.6268 30.992 69.5948 30.976C69.5628 30.952 69.5388 30.924 69.5228 30.892C69.5068 30.852 69.4948 30.804 69.4868 30.748C69.4788 30.692 69.4748 30.632 69.4748 30.568C69.4748 30.48 69.4828 30.408 69.4988 30.352C69.5068 30.288 69.5308 30.24 69.5708 30.208C69.6028 30.168 69.6508 30.148 69.7148 30.148V31Z" fill="#050505"/>
<path d="M99.75 28.9999C99.75 29.1482 99.706 29.2932 99.6236 29.4166C99.5412 29.5399 99.4241 29.6361 99.287 29.6928C99.15 29.7496 98.9992 29.7644 98.8537 29.7355C98.7082 29.7066 98.5746 29.6351 98.4697 29.5302C98.3648 29.4253 98.2934 29.2917 98.2644 29.1462C98.2355 29.0007 98.2503 28.8499 98.3071 28.7129C98.3639 28.5759 98.46 28.4587 98.5833 28.3763C98.7067 28.2939 98.8517 28.2499 99 28.2499C99.1989 28.2499 99.3897 28.3289 99.5303 28.4696C99.671 28.6102 99.75 28.801 99.75 28.9999ZM99.4656 31.4555C99.3558 32.1635 98.9966 32.809 98.4528 33.2756C97.9091 33.7421 97.2165 33.999 96.5 33.9999H95C94.2046 33.9991 93.442 33.6827 92.8796 33.1203C92.3172 32.5579 92.0008 31.7953 92 30.9999V28.468C91.0335 28.3463 90.1446 27.8759 89.5002 27.1453C88.8558 26.4147 88.5001 25.4741 88.5 24.4999V21.4999C88.5 21.3673 88.5527 21.2401 88.6464 21.1464C88.7402 21.0526 88.8674 20.9999 89 20.9999H90.5C90.6326 20.9999 90.7598 21.0526 90.8536 21.1464C90.9473 21.2401 91 21.3673 91 21.4999C91 21.6325 90.9473 21.7597 90.8536 21.8535C90.7598 21.9472 90.6326 21.9999 90.5 21.9999H89.5V24.4999C89.5 24.8973 89.5789 25.2907 89.7321 25.6573C89.8854 26.0239 90.1099 26.3564 90.3928 26.6355C90.6756 26.9146 91.0111 27.1347 91.3797 27.2831C91.7483 27.4315 92.1427 27.5052 92.54 27.4999C94.1719 27.4787 95.5 26.1093 95.5 24.448V21.9999H94.5C94.3674 21.9999 94.2402 21.9472 94.1464 21.8535C94.0527 21.7597 94 21.6325 94 21.4999C94 21.3673 94.0527 21.2401 94.1464 21.1464C94.2402 21.0526 94.3674 20.9999 94.5 20.9999H96C96.1326 20.9999 96.2598 21.0526 96.3536 21.1464C96.4473 21.2401 96.5 21.3673 96.5 21.4999V24.448C96.5 26.5005 94.9669 28.2162 93 28.4674V30.9999C93 31.5303 93.2107 32.039 93.5858 32.4141C93.9609 32.7892 94.4696 32.9999 95 32.9999H96.5C96.9542 32.9992 97.3946 32.8441 97.7492 32.5602C98.1037 32.2764 98.3512 31.8804 98.4513 31.4374C97.8474 31.3018 97.3153 30.947 96.958 30.4417C96.6006 29.9363 96.4434 29.3164 96.5168 28.7019C96.5901 28.0874 96.8888 27.5219 97.3551 27.1149C97.8213 26.7078 98.4219 26.4882 99.0407 26.4985C99.6596 26.5088 100.253 26.7483 100.705 27.1706C101.157 27.5929 101.437 28.168 101.49 28.7846C101.543 29.4013 101.365 30.0156 100.991 30.5087C100.617 31.0019 100.074 31.3388 99.4656 31.4543V31.4555ZM100.5 28.9999C100.5 28.7032 100.412 28.4132 100.247 28.1666C100.082 27.9199 99.8481 27.7276 99.574 27.6141C99.2999 27.5006 98.9983 27.4709 98.7074 27.5287C98.4164 27.5866 98.1491 27.7295 97.9393 27.9392C97.7296 28.149 97.5867 28.4163 97.5288 28.7073C97.4709 28.9982 97.5006 29.2998 97.6142 29.5739C97.7277 29.848 97.92 30.0823 98.1666 30.2471C98.4133 30.4119 98.7033 30.4999 99 30.4999C99.3978 30.4999 99.7794 30.3419 100.061 30.0606C100.342 29.7793 100.5 29.3977 100.5 28.9999Z" fill="#050505"/>
<rect x="124" y="9" width="36" height="36" rx="18" fill="#FEFEFE"/>
<path d="M147.707 25.7924L142.707 20.7924C142.519 20.605 142.265 20.4998 142 20.4998C141.735 20.4998 141.481 20.605 141.293 20.7924L136.293 25.7924C136.2 25.885 136.126 25.9953 136.076 26.1167C136.025 26.2382 136 26.3684 136 26.4999V32.4999C136 32.6325 136.053 32.7597 136.146 32.8535C136.24 32.9472 136.367 32.9999 136.5 32.9999H147.5C147.633 32.9999 147.76 32.9472 147.854 32.8535C147.947 32.7597 148 32.6325 148 32.4999V26.4999C148 26.3684 147.975 26.2382 147.924 26.1167C147.874 25.9953 147.8 25.885 147.707 25.7924ZM147 31.9999H137V26.4999L142 21.4999L147 26.4999V31.9999Z" fill="#050505"/>
</svg>
