<svg width="334" height="64" viewBox="0 0 334 64" fill="none" xmlns="http://www.w3.org/2000/svg">
<rect width="334" height="64" rx="30" fill="#EDF7EE"/>
<g clip-path="url(#clip0_33_708)">
<path d="M53.44 32.99L53.43 33.01C53.47 32.68 53.51 32.34 53.51 32C53.51 31.66 53.48 31.34 53.44 31.01L53.45 31.03L55.89 29.11L53.46 24.89L50.59 26.05L50.6 26.06C50.08 25.66 49.51 25.32 48.89 25.06H48.9L48.44 22H43.57L43.13 25.07H43.14C42.52 25.33 41.95 25.67 41.43 26.07L41.44 26.06L38.56 24.89L36.12 29.11L38.56 31.03L38.57 31.01C38.53 31.34 38.5 31.66 38.5 32C38.5 32.34 38.53 32.68 38.58 33.01L38.57 32.99L36.47 34.64L36.14 34.9L38.57 39.1L41.45 37.95L41.43 37.91C41.96 38.32 42.53 38.66 43.16 38.92H43.13L43.58 42H48.43C48.43 42 48.46 41.82 48.49 41.58L48.87 38.93H48.86C49.48 38.67 50.06 38.33 50.59 37.92L50.57 37.96L53.45 39.11L55.88 34.91C55.88 34.91 55.74 34.79 55.55 34.65L53.44 32.99ZM46 35.5C44.07 35.5 42.5 33.93 42.5 32C42.5 30.07 44.07 28.5 46 28.5C47.93 28.5 49.5 30.07 49.5 32C49.5 33.93 47.93 35.5 46 35.5Z" fill="#060606"/>
</g>
<path fill-rule="evenodd" clip-rule="evenodd" d="M116.55 36.721C116.248 36.9058 116.022 37.1913 115.91 37.527C115.798 37.8627 115.809 38.227 115.94 38.5556C116.071 38.8842 116.314 39.1559 116.626 39.3228C116.938 39.4896 117.299 39.5408 117.645 39.4674C117.991 39.3939 118.3 39.2006 118.517 38.9214C118.734 38.6422 118.846 38.2952 118.832 37.9417C118.818 37.5883 118.68 37.251 118.442 36.9896C118.204 36.7281 117.881 36.5593 117.53 36.513C117.511 36.4459 117.494 36.3784 117.478 36.3105C117.41 36.0015 117.357 35.6895 117.318 35.3755C117.277 35.0581 117.254 34.7386 117.248 34.4185C117.248 34.3306 117.25 34.2427 117.256 34.155C117.448 34.0997 117.641 34.0502 117.833 34.0065C118.054 33.9565 118.185 34.2165 118.29 34.4275L118.333 34.512H124.208C124.322 34.295 124.582 33.949 124.833 34.0065C125.102 34.0678 125.37 34.14 125.638 34.223L125.636 34.2235C125.635 34.2225 125.635 34.2228 125.636 34.2245C125.638 34.2315 125.649 34.2645 125.66 34.3345C125.673 34.4158 125.681 34.52 125.685 34.647C125.692 34.899 125.678 35.2055 125.648 35.5145C125.618 35.823 125.574 36.1215 125.524 36.357C125.513 36.4093 125.502 36.457 125.491 36.5H124.833C124.74 36.5 124.649 36.5259 124.571 36.5748C124.492 36.6236 124.428 36.6935 124.386 36.7765L123.886 37.7765C123.852 37.8459 123.833 37.9224 123.833 38V39C123.833 39.1326 123.886 39.2598 123.98 39.3536C124.074 39.4473 124.201 39.5 124.333 39.5H125.333V38.5H124.833V38.118L125.142 37.5H126.524L126.833 38.118V38.5H126.333V39.5H127.333C127.466 39.5 127.593 39.4473 127.687 39.3536C127.781 39.2598 127.833 39.1326 127.833 39V38C127.833 37.9224 127.815 37.8459 127.78 37.7765L127.28 36.7765C127.239 36.6935 127.175 36.6236 127.096 36.5748C127.017 36.5259 126.926 36.5 126.833 36.5H126.515C126.569 36.2335 126.613 35.9225 126.643 35.6105C126.676 35.2735 126.693 34.924 126.685 34.619L126.684 34.605C128.678 35.4475 130.333 36.833 130.333 38.285V41H112.333V38.285C112.333 36.769 114.138 35.325 116.249 34.4965C116.254 34.8075 116.284 35.159 116.326 35.4995C116.372 35.867 116.435 36.2325 116.504 36.5335C116.519 36.5978 116.534 36.6603 116.55 36.721ZM117.333 38.5075C117.602 38.5075 117.833 38.2875 117.833 38C117.833 37.713 117.602 37.4925 117.333 37.4925C117.064 37.4925 116.833 37.7125 116.833 38C116.833 38.287 117.064 38.5075 117.333 38.5075ZM121.333 32C122.394 32 123.412 31.5786 124.162 30.8284C124.912 30.0783 125.333 29.0609 125.333 28C125.333 26.9391 124.912 25.9217 124.162 25.1716C123.412 24.4214 122.394 24 121.333 24C120.272 24 119.255 24.4214 118.505 25.1716C117.755 25.9217 117.333 26.9391 117.333 28C117.333 29.0609 117.755 30.0783 118.505 30.8284C119.255 31.5786 120.272 32 121.333 32ZM121.333 33C124.095 33 126.333 30.7615 126.333 28C126.333 25.2385 124.095 23 121.333 23C118.572 23 116.333 25.2385 116.333 28C116.333 30.7615 118.572 33 121.333 33Z" fill="black"/>
<rect x="184.667" y="12" width="40" height="40" rx="15" fill="#4CAF50"/>
<path d="M204.667 42C205.767 42 206.667 41.1 206.667 40H202.667C202.667 41.1 203.557 42 204.667 42ZM210.667 36V31C210.667 27.93 209.027 25.36 206.167 24.68V24C206.167 23.17 205.497 22.5 204.667 22.5C203.837 22.5 203.167 23.17 203.167 24V24.68C200.297 25.36 198.667 27.92 198.667 31V36L196.667 38V39H212.667V38L210.667 36Z" fill="#050505"/>
<g clip-path="url(#clip1_33_708)">
<path d="M286 40V34H290V40H295V32H298L288 23L278 32H281V40H286Z" fill="#060606"/>
</g>
<defs>
<clipPath id="clip0_33_708">
<rect width="24" height="24" fill="white" transform="translate(34 20)"/>
</clipPath>
<clipPath id="clip1_33_708">
<rect width="24" height="24" fill="white" transform="translate(276 20)"/>
</clipPath>
</defs>
</svg>
