<svg width="334" height="64" viewBox="0 0 334 64" fill="none" xmlns="http://www.w3.org/2000/svg">
<rect width="334" height="64" rx="30" fill="#EDF7EE"/>
<g clip-path="url(#clip0_33_727)">
<path d="M53.44 32.99L53.43 33.01C53.47 32.68 53.51 32.34 53.51 32C53.51 31.66 53.48 31.34 53.44 31.01L53.45 31.03L55.89 29.11L53.46 24.89L50.59 26.05L50.6 26.06C50.08 25.66 49.51 25.32 48.89 25.06H48.9L48.44 22H43.57L43.13 25.07H43.14C42.52 25.33 41.95 25.67 41.43 26.07L41.44 26.06L38.56 24.89L36.12 29.11L38.56 31.03L38.57 31.01C38.53 31.34 38.5 31.66 38.5 32C38.5 32.34 38.53 32.68 38.58 33.01L38.57 32.99L36.47 34.64L36.14 34.9L38.57 39.1L41.45 37.95L41.43 37.91C41.96 38.32 42.53 38.66 43.16 38.92H43.13L43.58 42H48.43C48.43 42 48.46 41.82 48.49 41.58L48.87 38.93H48.86C49.48 38.67 50.06 38.33 50.59 37.92L50.57 37.96L53.45 39.11L55.88 34.91C55.88 34.91 55.74 34.79 55.55 34.65L53.44 32.99ZM46 35.5C44.07 35.5 42.5 33.93 42.5 32C42.5 30.07 44.07 28.5 46 28.5C47.93 28.5 49.5 30.07 49.5 32C49.5 33.93 47.93 35.5 46 35.5Z" fill="#060606"/>
</g>
<rect x="109.333" y="12" width="40" height="40" rx="15" fill="#4CAF50"/>
<path fill-rule="evenodd" clip-rule="evenodd" d="M124.55 36.721C124.248 36.9058 124.022 37.1913 123.91 37.527C123.798 37.8627 123.809 38.227 123.94 38.5556C124.071 38.8842 124.314 39.1559 124.626 39.3228C124.938 39.4896 125.299 39.5408 125.645 39.4674C125.991 39.3939 126.3 39.2006 126.517 38.9214C126.734 38.6422 126.846 38.2952 126.832 37.9417C126.818 37.5883 126.68 37.251 126.442 36.9896C126.204 36.7281 125.881 36.5593 125.53 36.513C125.511 36.4459 125.494 36.3784 125.478 36.3105C125.41 36.0015 125.357 35.6895 125.318 35.3755C125.277 35.0581 125.254 34.7386 125.248 34.4185C125.248 34.3306 125.25 34.2427 125.256 34.155C125.448 34.0997 125.641 34.0502 125.833 34.0065C126.054 33.9565 126.185 34.2165 126.29 34.4275L126.333 34.512H132.208C132.322 34.295 132.582 33.949 132.833 34.0065C133.102 34.0678 133.37 34.14 133.638 34.223L133.636 34.2235C133.635 34.2225 133.635 34.2228 133.636 34.2245C133.638 34.2315 133.649 34.2645 133.66 34.3345C133.673 34.4158 133.681 34.52 133.685 34.647C133.692 34.899 133.678 35.2055 133.648 35.5145C133.618 35.823 133.574 36.1215 133.524 36.357C133.513 36.4093 133.502 36.457 133.491 36.5H132.833C132.74 36.5 132.649 36.5259 132.571 36.5748C132.492 36.6236 132.428 36.6935 132.386 36.7765L131.886 37.7765C131.852 37.8459 131.833 37.9224 131.833 38V39C131.833 39.1326 131.886 39.2598 131.98 39.3536C132.074 39.4473 132.201 39.5 132.333 39.5H133.333V38.5H132.833V38.118L133.142 37.5H134.524L134.833 38.118V38.5H134.333V39.5H135.333C135.466 39.5 135.593 39.4473 135.687 39.3536C135.781 39.2598 135.833 39.1326 135.833 39V38C135.833 37.9224 135.815 37.8459 135.78 37.7765L135.28 36.7765C135.239 36.6935 135.175 36.6236 135.096 36.5748C135.017 36.5259 134.926 36.5 134.833 36.5H134.515C134.569 36.2335 134.613 35.9225 134.643 35.6105C134.676 35.2735 134.693 34.924 134.685 34.619L134.684 34.605C136.678 35.4475 138.333 36.833 138.333 38.285V41H120.333V38.285C120.333 36.769 122.138 35.325 124.249 34.4965C124.254 34.8075 124.284 35.159 124.326 35.4995C124.372 35.867 124.435 36.2325 124.504 36.5335C124.519 36.5978 124.534 36.6603 124.55 36.721ZM125.333 38.5075C125.602 38.5075 125.833 38.2875 125.833 38C125.833 37.713 125.602 37.4925 125.333 37.4925C125.064 37.4925 124.833 37.7125 124.833 38C124.833 38.287 125.064 38.5075 125.333 38.5075ZM129.333 32C130.394 32 131.412 31.5786 132.162 30.8284C132.912 30.0783 133.333 29.0609 133.333 28C133.333 26.9391 132.912 25.9217 132.162 25.1716C131.412 24.4214 130.394 24 129.333 24C128.272 24 127.255 24.4214 126.505 25.1716C125.755 25.9217 125.333 26.9391 125.333 28C125.333 29.0609 125.755 30.0783 126.505 30.8284C127.255 31.5786 128.272 32 129.333 32ZM129.333 33C132.095 33 134.333 30.7615 134.333 28C134.333 25.2385 132.095 23 129.333 23C126.572 23 124.333 25.2385 124.333 28C124.333 30.7615 126.572 33 129.333 33Z" fill="black"/>
<path d="M212.667 42C213.767 42 214.667 41.1 214.667 40H210.667C210.667 41.1 211.557 42 212.667 42ZM218.667 36V31C218.667 27.93 217.027 25.36 214.167 24.68V24C214.167 23.17 213.497 22.5 212.667 22.5C211.837 22.5 211.167 23.17 211.167 24V24.68C208.297 25.36 206.667 27.92 206.667 31V36L204.667 38V39H220.667V38L218.667 36Z" fill="#050505"/>
<g clip-path="url(#clip1_33_727)">
<path d="M286 40V34H290V40H295V32H298L288 23L278 32H281V40H286Z" fill="#060606"/>
</g>
<defs>
<clipPath id="clip0_33_727">
<rect width="24" height="24" fill="white" transform="translate(34 20)"/>
</clipPath>
<clipPath id="clip1_33_727">
<rect width="24" height="24" fill="white" transform="translate(276 20)"/>
</clipPath>
</defs>
</svg>
