<svg width="334" height="64" viewBox="0 0 334 64" fill="none" xmlns="http://www.w3.org/2000/svg">
<rect width="334" height="64" rx="30" fill="#EDF7EE"/>
<rect x="34" y="12" width="40" height="40" rx="15" fill="#4CAF50"/>
<g clip-path="url(#clip0_33_746)">
<path d="M61.44 32.99L61.43 33.01C61.47 32.68 61.51 32.34 61.51 32C61.51 31.66 61.48 31.34 61.44 31.01L61.45 31.03L63.89 29.11L61.46 24.89L58.59 26.05L58.6 26.06C58.08 25.66 57.51 25.32 56.89 25.06H56.9L56.44 22H51.57L51.13 25.07H51.14C50.52 25.33 49.95 25.67 49.43 26.07L49.44 26.06L46.56 24.89L44.12 29.11L46.56 31.03L46.57 31.01C46.53 31.34 46.5 31.66 46.5 32C46.5 32.34 46.53 32.68 46.58 33.01L46.57 32.99L44.47 34.64L44.14 34.9L46.57 39.1L49.45 37.95L49.43 37.91C49.96 38.32 50.53 38.66 51.16 38.92H51.13L51.58 42H56.43C56.43 42 56.46 41.82 56.49 41.58L56.87 38.93H56.86C57.48 38.67 58.06 38.33 58.59 37.92L58.57 37.96L61.45 39.11L63.88 34.91C63.88 34.91 63.74 34.79 63.55 34.65L61.44 32.99ZM54 35.5C52.07 35.5 50.5 33.93 50.5 32C50.5 30.07 52.07 28.5 54 28.5C55.93 28.5 57.5 30.07 57.5 32C57.5 33.93 55.93 35.5 54 35.5Z" fill="#060606"/>
</g>
<path fill-rule="evenodd" clip-rule="evenodd" d="M132.55 36.721C132.248 36.9058 132.022 37.1913 131.91 37.527C131.798 37.8627 131.809 38.227 131.94 38.5556C132.071 38.8842 132.314 39.1559 132.626 39.3228C132.938 39.4896 133.299 39.5408 133.645 39.4674C133.991 39.3939 134.3 39.2006 134.517 38.9214C134.734 38.6422 134.846 38.2952 134.832 37.9417C134.818 37.5883 134.68 37.251 134.442 36.9896C134.204 36.7281 133.881 36.5593 133.53 36.513C133.511 36.4459 133.494 36.3784 133.478 36.3105C133.41 36.0015 133.357 35.6895 133.318 35.3755C133.277 35.0581 133.254 34.7386 133.248 34.4185C133.248 34.3306 133.25 34.2427 133.256 34.155C133.448 34.0997 133.641 34.0502 133.833 34.0065C134.054 33.9565 134.185 34.2165 134.29 34.4275L134.333 34.512H140.208C140.322 34.295 140.582 33.949 140.833 34.0065C141.102 34.0678 141.37 34.14 141.638 34.223L141.636 34.2235C141.635 34.2225 141.635 34.2228 141.636 34.2245C141.638 34.2315 141.649 34.2645 141.66 34.3345C141.673 34.4158 141.681 34.52 141.685 34.647C141.692 34.899 141.678 35.2055 141.648 35.5145C141.618 35.823 141.574 36.1215 141.524 36.357C141.513 36.4093 141.502 36.457 141.491 36.5H140.833C140.74 36.5 140.649 36.5259 140.571 36.5748C140.492 36.6236 140.428 36.6935 140.386 36.7765L139.886 37.7765C139.852 37.8459 139.833 37.9224 139.833 38V39C139.833 39.1326 139.886 39.2598 139.98 39.3536C140.074 39.4473 140.201 39.5 140.333 39.5H141.333V38.5H140.833V38.118L141.142 37.5H142.524L142.833 38.118V38.5H142.333V39.5H143.333C143.466 39.5 143.593 39.4473 143.687 39.3536C143.781 39.2598 143.833 39.1326 143.833 39V38C143.833 37.9224 143.815 37.8459 143.78 37.7765L143.28 36.7765C143.239 36.6935 143.175 36.6236 143.096 36.5748C143.017 36.5259 142.926 36.5 142.833 36.5H142.515C142.569 36.2335 142.613 35.9225 142.643 35.6105C142.676 35.2735 142.693 34.924 142.685 34.619L142.684 34.605C144.678 35.4475 146.333 36.833 146.333 38.285V41H128.333V38.285C128.333 36.769 130.138 35.325 132.249 34.4965C132.254 34.8075 132.284 35.159 132.326 35.4995C132.372 35.867 132.435 36.2325 132.504 36.5335C132.519 36.5978 132.534 36.6603 132.55 36.721ZM133.333 38.5075C133.602 38.5075 133.833 38.2875 133.833 38C133.833 37.713 133.602 37.4925 133.333 37.4925C133.064 37.4925 132.833 37.7125 132.833 38C132.833 38.287 133.064 38.5075 133.333 38.5075ZM137.333 32C138.394 32 139.412 31.5786 140.162 30.8284C140.912 30.0783 141.333 29.0609 141.333 28C141.333 26.9391 140.912 25.9217 140.162 25.1716C139.412 24.4214 138.394 24 137.333 24C136.272 24 135.255 24.4214 134.505 25.1716C133.755 25.9217 133.333 26.9391 133.333 28C133.333 29.0609 133.755 30.0783 134.505 30.8284C135.255 31.5786 136.272 32 137.333 32ZM137.333 33C140.095 33 142.333 30.7615 142.333 28C142.333 25.2385 140.095 23 137.333 23C134.572 23 132.333 25.2385 132.333 28C132.333 30.7615 134.572 33 137.333 33Z" fill="black"/>
<path d="M212.667 42C213.767 42 214.667 41.1 214.667 40H210.667C210.667 41.1 211.557 42 212.667 42ZM218.667 36V31C218.667 27.93 217.027 25.36 214.167 24.68V24C214.167 23.17 213.497 22.5 212.667 22.5C211.837 22.5 211.167 23.17 211.167 24V24.68C208.297 25.36 206.667 27.92 206.667 31V36L204.667 38V39H220.667V38L218.667 36Z" fill="#050505"/>
<g clip-path="url(#clip1_33_746)">
<path d="M286 40V34H290V40H295V32H298L288 23L278 32H281V40H286Z" fill="#060606"/>
</g>
<defs>
<clipPath id="clip0_33_746">
<rect width="24" height="24" fill="white" transform="translate(42 20)"/>
</clipPath>
<clipPath id="clip1_33_746">
<rect width="24" height="24" fill="white" transform="translate(276 20)"/>
</clipPath>
</defs>
</svg>
